Coordinates
version=1
nRows=65
nColumns=12
inDegrees=yes

Units are S.I. units (second, meters, Newtons, ...)
Angles are in degrees

endheader
time	SC_y	SC_z	SC_x	AC_y	AC_z	AC_x	GH_y	GH_z	GH_yy	EL_x	PS_y
       0.0              -18.36        -0.2284          79.58          54.18         -5.423           17.2          149.4          63.66          39.12          88.41          81.87
  0.009734              -18.36        -0.2245          79.57          54.19         -5.422          17.19          149.4          63.66           39.1           88.4          81.86
   0.01947              -18.36        -0.2203          79.57          54.19         -5.421          17.19          149.3          63.65          39.09          88.39          81.86
    0.0292              -18.36        -0.2159          79.56          54.19          -5.42          17.19          149.3          63.65          39.07          88.38          81.86
   0.03894              -18.36        -0.2111          79.55          54.19         -5.418          17.18          149.3          63.64          39.06          88.36          81.86
   0.04867              -18.36        -0.2061          79.55           54.2         -5.417          17.18          149.3          63.64          39.04          88.35          81.86
    0.0584              -18.36        -0.2007          79.54           54.2         -5.415          17.18          149.2          63.63          39.02          88.34          81.85
   0.06814              -18.35        -0.1949          79.53           54.2         -5.413          17.17          149.2          63.62           39.0          88.32          81.85
   0.07787              -18.35        -0.1888          79.52           54.2         -5.411          17.17          149.2          63.62          38.98          88.31          81.85
    0.0876              -18.35        -0.1821          79.51          54.21         -5.409          17.16          149.1          63.61          38.96          88.29          81.84
   0.09734              -18.35         -0.175           79.5          54.21         -5.407          17.15          149.1           63.6          38.93          88.27          81.84
    0.1071              -18.35        -0.1674          79.49          54.21         -5.405          17.15          149.1          63.59          38.91          88.26          81.84
    0.1168              -18.35        -0.1591          79.48          54.22         -5.402          17.14          149.0          63.58          38.88          88.23          81.83
    0.1265              -18.35        -0.1502          79.46          54.22           -5.4          17.13          149.0          63.57          38.85          88.21          81.83
    0.1363              -18.34        -0.1406          79.45          54.23         -5.397          17.13          148.9          63.56          38.81          88.19          81.82
     0.146              -18.34        -0.1301          79.43          54.23         -5.393          17.12          148.9          63.55          38.78          88.16          81.82
    0.1557              -18.34        -0.1188          79.42          54.24          -5.39          17.11          148.8          63.54          38.74          88.13          81.81
    0.1655              -18.34        -0.1064           79.4          54.24         -5.386           17.1          148.7          63.52           38.7           88.1          81.81
    0.1752              -18.33       -0.09288          79.38          54.25         -5.382          17.09          148.7          63.51          38.65          88.07           81.8
    0.1849              -18.33       -0.07808          79.36          54.26         -5.378          17.08          148.6          63.49           38.6          88.03          81.79
    0.1947              -18.33       -0.06183          79.33          54.27         -5.373          17.06          148.5          63.47          38.54          87.99          81.79
    0.2044              -18.33       -0.04395          79.31          54.28         -5.367          17.05          148.4          63.45          38.48          87.95          81.78
    0.2141              -18.32        -0.0242          79.28          54.29         -5.361          17.03          148.3          63.43          38.41           87.9          81.77
    0.2239              -18.32      -0.002313          79.25           54.3         -5.354          17.02          148.2          63.41          38.34          87.84          81.76
    0.2336              -18.31        0.02202          79.21          54.31         -5.347           17.0          148.0          63.38          38.25          87.78          81.75
    0.2433              -18.31        0.04916          79.17          54.32         -5.339          16.97          147.9          63.35          38.16          87.72          81.73
    0.2531               -18.3        0.07957          79.13          54.34         -5.329          16.95          147.7          63.31          38.06          87.64          81.72
    0.2628               -18.3         0.1138          79.08          54.35         -5.319          16.92          147.5          63.27          37.94          87.55           81.7
    0.2725              -18.29         0.1524          79.02          54.37         -5.307          16.89          147.3          63.23           37.8          87.46          81.68
    0.2823              -18.28         0.1963          78.96          54.39         -5.294          16.86          147.1          63.18          37.65          87.35          81.66
     0.292              -18.27         0.2464          78.88          54.42         -5.279          16.82          146.8          63.12          37.48          87.22          81.64
    0.3017              -18.26         0.3039           78.8          54.45         -5.261          16.77          146.5          63.06          37.28          87.08          81.61
    0.3115              -18.25         0.3703           78.7          54.48         -5.241          16.72          146.1          62.98          37.05          86.92          81.58
    0.3212              -18.23         0.4474          78.59          54.52         -5.217          16.65          145.7          62.89          36.79          86.72          81.54
    0.3309              -18.22         0.5376          78.46          54.56          -5.19          16.58          145.2          62.79          36.47           86.5           81.5
    0.3407               -18.2          0.644           78.3          54.62         -5.157           16.5          144.6          62.67          36.11          86.23          81.45
    0.3504              -18.17         0.7704          78.12          54.68         -5.119          16.39          144.0          62.53          35.67          85.92          81.39
    0.3602              -18.14          0.922           77.9          54.75         -5.072          16.27          143.1          62.35          35.15          85.54          81.32
    0.3699              -18.11          1.105          77.63          54.84         -5.017          16.12          142.1          62.14          34.52          85.08          81.23
    0.3796              -18.07          1.329           77.3          54.95         -4.948          15.94          140.9          61.89          33.74          84.53          81.12
    0.3894              -18.01          1.606           76.9          55.09         -4.864          15.72          139.4          61.58          32.79          83.84          80.99
    0.3991              -17.95           1.95          76.39          55.26         -4.759          15.44          137.5          61.18           31.6          82.98          80.83
    0.4088              -17.87          2.385          75.76          55.48         -4.626          15.09          135.2          60.69           30.1           81.9          80.62
    0.4186              -17.76          2.936          74.95          55.75         -4.458          14.65          132.2          60.06           28.2          80.52          80.36
    0.4283              -17.63          3.643          73.92           56.1         -4.242          14.08          128.3          59.26          25.76          78.76          80.02
     0.438              -17.46           4.55          72.59          56.54         -3.966          13.35          123.4          58.23          22.63           76.5          79.59
    0.4478              -17.24          5.708           70.9          57.12         -3.612          12.42          117.1          56.91          18.64          73.62          79.03
    0.4575              -16.97          7.164          68.77          57.84         -3.168          11.24          109.1          55.25          13.61          69.99          78.34
    0.4672              -16.63          8.938          66.17          58.71         -2.627          9.815          99.45          53.23           7.49          65.57          77.49
     0.477              -16.24           11.0          63.17          59.73         -1.999          8.159          88.25          50.89         0.3929          60.44          76.51
    0.4867              -15.82          13.22          59.91          60.83          -1.32          6.365          76.11          48.36         -7.291          54.89          75.45
    0.4964               -15.4          15.45          56.65          61.93        -0.6401          4.571          63.98          45.82         -14.98          49.34          74.38
    0.5062              -15.01          17.51          53.65          62.95       -0.01256          2.915          52.77          43.48         -22.07          44.22           73.4
    0.5159              -14.68          19.28          51.05          63.82         0.5288          1.486           43.1          41.46          -28.2          39.79          72.55
    0.5256               -14.4          20.74          48.92          64.54         0.9731         0.3129          35.17           39.8         -33.22          36.17          71.86
    0.5354              -14.19          21.89          47.23          65.11          1.326        -0.6197          28.86          38.49         -37.22          33.28          71.31
    0.5451              -14.02           22.8           45.9          65.56          1.603          -1.35          23.92          37.45         -40.34          31.02          70.87
    0.5548              -13.88          23.51          44.87          65.91          1.819         -1.919          20.07          36.65         -42.78          29.26          70.54
    0.5646              -13.78          24.06          44.06          66.18          1.987         -2.363          17.07          36.02         -44.69          27.88          70.27
    0.5743               -13.7          24.49          43.43           66.4          2.119         -2.713           14.7          35.53         -46.18           26.8          70.07
     0.584              -13.63          24.84          42.93          66.57          2.225         -2.991          12.82          35.14         -47.37          25.94           69.9
    0.5938              -13.58          25.12          42.52           66.7          2.309         -3.213          11.32          34.82         -48.33          25.25          69.77
    0.6035              -13.54          25.34          42.19          66.81          2.377         -3.394           10.1          34.57          -49.1           24.7          69.66
    0.6132               -13.5          25.52          41.93          66.91          2.433         -3.541          9.098          34.36         -49.73          24.24          69.58
     0.623              -13.47          25.67           41.7          66.98          2.479         -3.663          8.272          34.19         -50.25          23.86           69.5
